# xmcd CD database file
#
# Track frame offsets:
#	150
#	20087
#	45325
#	59385
#	87720
#	113587
#	131305
#	152397
#	164650
#	173542
#	185560
#	199570
#	212315
#	227207
#	241562
#	255105
#	268565
#	282057
#	295752
#	306767
#
# Disc length: 4227 seconds
#
# Revision: 0
# Processed by: cddbd v1.4PL0 Copyright (c) Steve Scherf et al.
# Submitted via: CDex 1.50
#
DISCID=fe108114
DTITLE=Various Artist - Jimmy Giuffre: Trav'lin' Light - Mabel Mercer: Merely Marvelous
DYEAR=1900
DGENRE=Jazz
TTITLE0=Jimmy Giuffre - Trav'lin' Light
TTITLE1=Jimmy Giuffre - The Swamp People
TTITLE2=Jimmy Giuffre - The Green Country
TTITLE3=Jimmy Giuffre - Forty-Second Street
TTITLE4=Jimmy Giuffre - Pickin' 'em Up And Layin'  'em Down
TTITLE5=Jimmy Giuffre - The Lonely Time
TTITLE6=Jimmy Giuffre - Show Me The Way To Go Home
TTITLE7=Jimmy Giuffre - Califirnia Here I Come
TTITLE8=Mabel Mercer - Merely Marvelous
TTITLE9=Mabel Mercer - Let's Begin
TTITLE10=Mabel Mercer - All The Fun
TTITLE11=Mabel Mercer - The Fifth Of July
TTITLE12=Mabel Mercer - Don't Dream Of Anybody But Me
TTITLE13=Mabel Mercer - Round House Nellie
TTITLE14=Mabel Mercer - Sell Me
TTITLE15=Mabel Mercer - Love Wise
TTITLE16=Mabel Mercer - Nobody Else But Me
TTITLE17=Mabel Mercer - You're Nearer
TTITLE18=Mabel Mercer - I Walk A Little Faster
TTITLE19=Mabel Mercer - You Fascinate Me So
EXTD=
EXTT0=
EXTT1=
EXTT2=
EXTT3=
EXTT4=
EXTT5=
EXTT6=
EXTT7=
EXTT8=
EXTT9=
EXTT10=
EXTT11=
EXTT12=
EXTT13=
EXTT14=
EXTT15=
EXTT16=
EXTT17=
EXTT18=
EXTT19=
PLAYORDER=
